<mxfile host="app.diagrams.net" modified="2024-01-10T05:29:59.713Z" agent="Mozilla/5.0 (Windows NT 10.0; Win64; x64) AppleWebKit/537.36 (KHTML, like Gecko) Chrome/120.0.0.0 Safari/537.36" version="22.1.18" etag="kyL5oyzoS-7DYfHcx8BZ" type="github">
  <diagram name="Page-1" id="3d9Sh_YwWfvlqaDeaZUG">
    <mxGraphModel>
      <root>
        <mxCell id="0" />
        <mxCell id="1" parent="0" />
      </root>
    </mxGraphModel>
  </diagram>
</mxfile>
